<svg xmlns="http://www.w3.org/2000/svg" xmlns:xlink="http://www.w3.org/1999/xlink" width="500" zoomAndPan="magnify" viewBox="0 0 375 374.999991" height="500" preserveAspectRatio="xMidYMid meet" version="1.0"><defs><g/><clipPath id="b6f15e94ee"><path d="M 97.023438 116.539062 L 277.976562 116.539062 L 277.976562 297.492188 L 97.023438 297.492188 Z M 97.023438 116.539062 " clip-rule="nonzero"/></clipPath><clipPath id="0973b5e075"><path d="M 277.976562 207.015625 C 277.976562 256.984375 237.46875 297.492188 187.5 297.492188 C 137.53125 297.492188 97.023438 256.984375 97.023438 207.015625 C 97.023438 157.046875 137.53125 116.539062 187.5 116.539062 C 237.46875 116.539062 277.976562 157.046875 277.976562 207.015625 Z M 277.976562 207.015625 " clip-rule="nonzero"/></clipPath><clipPath id="b53b4ef71c"><path d="M 177 126.503906 L 190 126.503906 L 190 139 L 177 139 Z M 177 126.503906 " clip-rule="nonzero"/></clipPath><clipPath id="ff78aed4fd"><path d="M 122.441406 190 L 252.191406 190 L 252.191406 206.753906 L 122.441406 206.753906 Z M 122.441406 190 " clip-rule="nonzero"/></clipPath></defs><g clip-path="url(#b6f15e94ee)"><g clip-path="url(#0973b5e075)"><path fill="#c7d59f" d="M 97.023438 116.539062 L 277.976562 116.539062 L 277.976562 297.492188 L 97.023438 297.492188 Z M 97.023438 116.539062 " fill-opacity="1" fill-rule="nonzero"/></g></g><path fill="#4b5842" d="M 222.203125 173.449219 C 222.203125 173.726562 222.429688 174.035156 222.707031 174.136719 L 228.261719 176.15625 C 228.539062 176.257812 228.765625 176.113281 228.765625 175.835938 L 228.765625 175.179688 C 228.765625 174.902344 228.539062 174.59375 228.261719 174.492188 L 222.707031 172.472656 C 222.429688 172.371094 222.203125 172.515625 222.203125 172.792969 L 222.203125 173.449219 " fill-opacity="1" fill-rule="nonzero"/><path fill="#4b5842" d="M 214.355469 176.746094 C 214.355469 176.933594 214.507812 176.980469 214.699219 176.84375 L 218.503906 174.152344 C 218.691406 174.015625 218.847656 173.757812 218.847656 173.566406 L 218.847656 173.117188 C 218.847656 172.925781 218.691406 172.878906 218.503906 173.015625 L 214.699219 175.707031 C 214.507812 175.839844 214.355469 176.105469 214.355469 176.292969 L 214.355469 176.746094 " fill-opacity="1" fill-rule="nonzero"/><path fill="#4b5842" d="M 214.355469 181.234375 C 214.355469 181.425781 214.507812 181.46875 214.699219 181.335938 L 218.503906 178.640625 C 218.691406 178.507812 218.847656 178.246094 218.847656 178.054688 L 218.847656 177.605469 C 218.847656 177.414062 218.691406 177.371094 218.503906 177.507812 L 214.699219 180.195312 C 214.507812 180.332031 214.355469 180.59375 214.355469 180.785156 L 214.355469 181.234375 " fill-opacity="1" fill-rule="nonzero"/><path fill="#4b5842" d="M 222.203125 178.1875 C 222.203125 178.464844 222.429688 178.769531 222.707031 178.871094 L 228.261719 180.894531 C 228.539062 180.996094 228.765625 180.851562 228.765625 180.574219 L 228.765625 179.917969 C 228.765625 179.636719 228.539062 179.332031 228.261719 179.234375 L 222.707031 177.210938 C 222.429688 177.109375 222.203125 177.253906 222.203125 177.53125 L 222.203125 178.1875 " fill-opacity="1" fill-rule="nonzero"/><path fill="#4b5842" d="M 222.203125 183.101562 C 222.203125 183.378906 222.429688 183.683594 222.707031 183.785156 L 228.261719 185.804688 C 228.539062 185.90625 228.765625 185.765625 228.765625 185.488281 L 228.765625 184.828125 C 228.765625 184.550781 228.539062 184.246094 228.261719 184.144531 L 222.707031 182.125 C 222.429688 182.023438 222.203125 182.164062 222.203125 182.441406 L 222.203125 183.101562 " fill-opacity="1" fill-rule="nonzero"/><path fill="#4b5842" d="M 214.355469 186.394531 C 214.355469 186.585938 214.507812 186.628906 214.699219 186.496094 L 218.503906 183.800781 C 218.691406 183.667969 218.847656 183.40625 218.847656 183.214844 L 218.847656 182.765625 C 218.847656 182.574219 218.691406 182.53125 218.503906 182.664062 L 214.699219 185.359375 C 214.507812 185.492188 214.355469 185.753906 214.355469 185.945312 L 214.355469 186.394531 " fill-opacity="1" fill-rule="nonzero"/><path fill="#4b5842" d="M 214.355469 190.882812 C 214.355469 191.074219 214.507812 191.121094 214.699219 190.984375 L 218.503906 188.292969 C 218.691406 188.15625 218.847656 187.894531 218.847656 187.707031 L 218.847656 187.253906 C 218.847656 187.066406 218.691406 187.019531 218.503906 187.15625 L 214.699219 189.847656 C 214.507812 189.980469 214.355469 190.246094 214.355469 190.4375 L 214.355469 190.882812 " fill-opacity="1" fill-rule="nonzero"/><path fill="#4b5842" d="M 222.203125 187.835938 C 222.203125 188.117188 222.429688 188.421875 222.707031 188.523438 L 228.261719 190.546875 C 228.539062 190.644531 228.765625 190.503906 228.765625 190.226562 L 228.765625 189.566406 C 228.765625 189.289062 228.539062 188.984375 228.261719 188.882812 L 222.707031 186.863281 C 222.429688 186.761719 222.203125 186.902344 222.203125 187.179688 L 222.203125 187.835938 " fill-opacity="1" fill-rule="nonzero"/><path fill="#4b5842" d="M 194.914062 194.210938 L 194.914062 156.253906 L 202.707031 150.039062 L 202.707031 194.242188 C 203.144531 194.25 203.585938 194.261719 204.019531 194.277344 L 204.019531 149.679688 L 215.230469 154.351562 L 215.230469 172.132812 L 212.613281 174.21875 C 212.457031 174.34375 212.367188 174.535156 212.367188 174.734375 L 212.367188 194.804688 L 213.679688 194.804688 L 213.679688 175.050781 L 219.722656 170.234375 L 219.722656 194.804688 L 221.03125 194.804688 L 221.03125 169.867188 L 229.832031 173.539062 L 229.832031 194.804688 L 231.144531 194.804688 L 231.144531 173.101562 C 231.144531 172.835938 230.988281 172.597656 230.742188 172.496094 L 220.664062 168.292969 C 220.605469 168.261719 220.539062 168.242188 220.472656 168.234375 L 220.402344 168.226562 L 220.378906 168.222656 L 220.371094 168.222656 C 220.222656 168.222656 220.078125 168.273438 219.957031 168.367188 L 216.542969 171.089844 L 216.542969 153.914062 C 216.542969 153.648438 216.382812 153.414062 216.140625 153.308594 L 203.660156 148.105469 C 203.597656 148.074219 203.527344 148.050781 203.453125 148.042969 L 203.390625 148.035156 L 203.355469 148.035156 C 203.207031 148.03125 203.0625 148.082031 202.941406 148.175781 L 193.847656 155.425781 C 193.691406 155.550781 193.601562 155.738281 193.601562 155.9375 L 193.601562 194.207031 C 194.039062 194.207031 194.476562 194.210938 194.914062 194.210938 " fill-opacity="1" fill-rule="nonzero"/><path fill="#4b5842" d="M 205.628906 154.347656 C 205.628906 154.691406 205.90625 155.070312 206.25 155.195312 L 213.128906 157.699219 C 213.472656 157.824219 213.75 157.648438 213.75 157.304688 L 213.75 156.488281 C 213.75 156.148438 213.472656 155.765625 213.128906 155.644531 L 206.25 153.140625 C 205.90625 153.015625 205.628906 153.191406 205.628906 153.535156 L 205.628906 154.347656 " fill-opacity="1" fill-rule="nonzero"/><path fill="#4b5842" d="M 195.90625 158.429688 C 195.90625 158.664062 196.097656 158.71875 196.332031 158.554688 L 201.042969 155.21875 C 201.277344 155.050781 201.46875 154.726562 201.46875 154.492188 L 201.46875 153.933594 C 201.46875 153.699219 201.277344 153.644531 201.042969 153.808594 L 196.332031 157.144531 C 196.097656 157.308594 195.90625 157.636719 195.90625 157.871094 L 195.90625 158.429688 " fill-opacity="1" fill-rule="nonzero"/><path fill="#4b5842" d="M 195.90625 164.175781 C 195.90625 164.410156 196.097656 164.46875 196.332031 164.300781 L 201.042969 160.964844 C 201.277344 160.800781 201.46875 160.472656 201.46875 160.238281 L 201.46875 159.683594 C 201.46875 159.445312 201.277344 159.390625 201.042969 159.558594 L 196.332031 162.894531 C 196.097656 163.058594 195.90625 163.382812 195.90625 163.617188 L 195.90625 164.175781 " fill-opacity="1" fill-rule="nonzero"/><path fill="#4b5842" d="M 195.90625 169.925781 C 195.90625 170.160156 196.097656 170.214844 196.332031 170.046875 L 201.042969 166.714844 C 201.277344 166.546875 201.46875 166.222656 201.46875 165.988281 L 201.46875 165.429688 C 201.46875 165.195312 201.277344 165.136719 201.042969 165.304688 L 196.332031 168.640625 C 196.097656 168.808594 195.90625 169.132812 195.90625 169.367188 L 195.90625 169.925781 " fill-opacity="1" fill-rule="nonzero"/><path fill="#4b5842" d="M 205.628906 160.21875 C 205.628906 160.5625 205.90625 160.941406 206.25 161.066406 L 213.128906 163.570312 C 213.472656 163.695312 213.75 163.519531 213.75 163.175781 L 213.75 162.359375 C 213.75 162.019531 213.472656 161.636719 213.128906 161.511719 L 206.25 159.007812 C 205.90625 158.886719 205.628906 159.0625 205.628906 159.40625 L 205.628906 160.21875 " fill-opacity="1" fill-rule="nonzero"/><path fill="#4b5842" d="M 205.628906 166.089844 C 205.628906 166.433594 205.90625 166.8125 206.25 166.9375 L 213.128906 169.441406 C 213.472656 169.566406 213.75 169.390625 213.75 169.046875 L 213.75 168.230469 C 213.75 167.890625 213.472656 167.507812 213.128906 167.382812 L 206.25 164.878906 C 205.90625 164.753906 205.628906 164.933594 205.628906 165.273438 L 205.628906 166.089844 " fill-opacity="1" fill-rule="nonzero"/><path fill="#4b5842" d="M 205.628906 183.363281 C 205.628906 183.707031 205.90625 184.085938 206.25 184.210938 L 213.128906 186.714844 C 213.472656 186.839844 213.75 186.660156 213.75 186.316406 L 213.75 185.503906 C 213.75 185.160156 213.472656 184.78125 213.128906 184.65625 L 206.25 182.152344 C 205.90625 182.027344 205.628906 182.203125 205.628906 182.546875 L 205.628906 183.363281 " fill-opacity="1" fill-rule="nonzero"/><path fill="#4b5842" d="M 195.90625 187.441406 C 195.90625 187.679688 196.097656 187.734375 196.332031 187.566406 L 201.042969 184.230469 C 201.277344 184.066406 201.46875 183.742188 201.46875 183.503906 L 201.46875 182.949219 C 201.46875 182.714844 201.277344 182.65625 201.042969 182.824219 L 196.332031 186.15625 C 196.097656 186.324219 195.90625 186.648438 195.90625 186.882812 L 195.90625 187.441406 " fill-opacity="1" fill-rule="nonzero"/><path fill="#4b5842" d="M 195.90625 193.191406 C 195.90625 193.425781 196.097656 193.480469 196.332031 193.316406 L 201.042969 189.980469 C 201.277344 189.8125 201.46875 189.488281 201.46875 189.253906 L 201.46875 188.695312 C 201.46875 188.460938 201.277344 188.40625 201.042969 188.570312 L 196.332031 191.90625 C 196.097656 192.070312 195.90625 192.398438 195.90625 192.632812 L 195.90625 193.191406 " fill-opacity="1" fill-rule="nonzero"/><path fill="#4b5842" d="M 205.628906 189.234375 C 205.628906 189.574219 205.90625 189.957031 206.25 190.078125 L 213.128906 192.582031 C 213.472656 192.707031 213.75 192.53125 213.75 192.1875 L 213.75 191.375 C 213.75 191.03125 213.472656 190.652344 213.128906 190.527344 L 206.25 188.023438 C 205.90625 187.898438 205.628906 188.074219 205.628906 188.417969 L 205.628906 189.234375 " fill-opacity="1" fill-rule="nonzero"/><path fill="#4b5842" d="M 207.859375 194.480469 L 206.25 193.894531 C 205.90625 193.769531 205.628906 193.945312 205.628906 194.289062 L 205.628906 194.34375 C 206.371094 194.382812 207.117188 194.425781 207.859375 194.480469 " fill-opacity="1" fill-rule="nonzero"/><path fill="#4b5842" d="M 205.628906 171.960938 C 205.628906 172.304688 205.90625 172.683594 206.25 172.808594 L 213.128906 175.3125 L 213.75 174.917969 L 213.75 174.101562 C 213.75 173.757812 213.472656 173.378906 213.128906 173.253906 L 206.25 170.75 C 205.90625 170.628906 205.628906 170.804688 205.628906 171.144531 L 205.628906 171.960938 " fill-opacity="1" fill-rule="nonzero"/><path fill="#4b5842" d="M 195.90625 175.671875 C 195.90625 175.90625 196.097656 175.964844 196.332031 175.796875 L 201.042969 172.460938 C 201.277344 172.292969 201.46875 171.96875 201.46875 171.734375 L 201.46875 171.175781 C 201.46875 170.941406 201.277344 170.886719 201.042969 171.050781 L 196.332031 174.386719 C 196.097656 174.554688 195.90625 174.878906 195.90625 175.113281 L 195.90625 175.671875 " fill-opacity="1" fill-rule="nonzero"/><path fill="#4b5842" d="M 201.042969 178.210938 L 196.332031 181.542969 L 196.292969 181.570312 L 195.949219 181.570312 C 195.921875 181.535156 195.90625 181.484375 195.90625 181.421875 L 195.90625 180.859375 C 195.90625 180.628906 196.097656 180.300781 196.332031 180.136719 L 201.042969 176.800781 C 201.277344 176.632812 201.46875 176.691406 201.46875 176.925781 L 201.46875 177.484375 C 201.46875 177.714844 201.277344 178.042969 201.042969 178.210938 " fill-opacity="1" fill-rule="nonzero"/><path fill="#4b5842" d="M 205.628906 177.832031 C 205.628906 178.175781 205.90625 178.554688 206.25 178.679688 L 213.128906 181.183594 C 213.472656 181.308594 213.390625 181.128906 213.390625 180.785156 L 213.390625 179.972656 C 213.390625 179.628906 213.472656 179.25 213.128906 179.125 L 206.25 176.621094 C 205.90625 176.496094 205.628906 176.671875 205.628906 177.015625 L 205.628906 177.832031 " fill-opacity="1" fill-rule="nonzero"/><path fill="#4b5842" d="M 144.851562 197.730469 L 144.851562 167.613281 L 159.316406 157.554688 L 173.152344 163.324219 L 173.152344 194.316406 C 173.59375 194.304688 174.039062 194.292969 174.480469 194.28125 L 174.480469 162.878906 C 174.480469 162.613281 174.320312 162.367188 174.074219 162.265625 L 159.492188 156.1875 C 159.28125 156.097656 159.042969 156.125 158.855469 156.253906 L 143.804688 166.722656 C 143.625 166.847656 143.519531 167.050781 143.519531 167.269531 L 143.519531 198.097656 C 143.960938 197.96875 144.40625 197.84375 144.851562 197.730469 " fill-opacity="1" fill-rule="nonzero"/><path fill="#4b5842" d="M 147.039062 165.683594 C 147.40625 165.683594 147.703125 165.386719 147.703125 165.019531 L 147.703125 162.847656 L 159.269531 154.804688 L 170.296875 159.402344 L 170.296875 161.652344 C 170.296875 162.019531 170.59375 162.320312 170.960938 162.320312 C 171.328125 162.320312 171.628906 162.019531 171.628906 161.652344 L 171.628906 158.957031 C 171.628906 158.691406 171.464844 158.445312 171.214844 158.34375 L 159.445312 153.433594 C 159.234375 153.347656 158.996094 153.375 158.808594 153.503906 L 146.65625 161.953125 C 146.480469 162.078125 146.371094 162.28125 146.371094 162.5 L 146.371094 165.019531 C 146.371094 165.386719 146.667969 165.683594 147.039062 165.683594 " fill-opacity="1" fill-rule="nonzero"/><path fill="#4b5842" d="M 159.914062 195.117188 L 159.914062 156.800781 C 159.914062 156.433594 159.617188 156.136719 159.25 156.136719 C 158.882812 156.136719 158.582031 156.433594 158.582031 156.800781 L 158.582031 195.257812 C 159.027344 195.207031 159.46875 195.164062 159.914062 195.117188 " fill-opacity="1" fill-rule="nonzero"/><path fill="#4b5842" d="M 165.78125 163.625 C 165.78125 163.847656 165.960938 164.101562 166.179688 164.191406 L 167.261719 164.644531 C 167.484375 164.734375 167.664062 164.628906 167.664062 164.410156 L 167.664062 163.328125 C 167.664062 163.105469 167.484375 162.851562 167.261719 162.761719 L 166.179688 162.3125 C 165.960938 162.222656 165.78125 162.324219 165.78125 162.546875 L 165.78125 163.625 " fill-opacity="1" fill-rule="nonzero"/><path fill="#4b5842" d="M 168.191406 164.628906 C 168.191406 164.851562 168.371094 165.101562 168.59375 165.195312 L 169.671875 165.644531 C 169.894531 165.738281 170.070312 165.632812 170.070312 165.410156 L 170.070312 164.332031 C 170.070312 164.109375 169.894531 163.859375 169.671875 163.765625 L 168.59375 163.316406 C 168.371094 163.222656 168.191406 163.328125 168.191406 163.550781 L 168.191406 164.628906 " fill-opacity="1" fill-rule="nonzero"/><path fill="#4b5842" d="M 170.601562 165.632812 C 170.601562 165.855469 170.78125 166.105469 171.003906 166.199219 L 172.082031 166.648438 C 172.304688 166.742188 172.484375 166.636719 172.484375 166.414062 L 172.484375 165.335938 C 172.484375 165.113281 172.304688 164.863281 172.082031 164.769531 L 171.003906 164.320312 C 170.78125 164.226562 170.601562 164.332031 170.601562 164.554688 L 170.601562 165.632812 " fill-opacity="1" fill-rule="nonzero"/><path fill="#4b5842" d="M 163.371094 162.625 C 163.371094 162.84375 163.550781 163.097656 163.769531 163.1875 L 164.851562 163.640625 C 165.070312 163.730469 165.25 163.625 165.25 163.40625 L 165.25 162.324219 C 165.25 162.105469 165.070312 161.851562 164.851562 161.757812 L 163.769531 161.308594 C 163.550781 161.21875 163.371094 161.320312 163.371094 161.542969 L 163.371094 162.625 " fill-opacity="1" fill-rule="nonzero"/><path fill="#4b5842" d="M 160.960938 161.621094 C 160.960938 161.839844 161.140625 162.09375 161.359375 162.183594 L 162.441406 162.636719 C 162.660156 162.726562 162.839844 162.625 162.839844 162.402344 L 162.839844 161.320312 C 162.839844 161.101562 162.660156 160.847656 162.441406 160.757812 L 161.359375 160.304688 C 161.140625 160.214844 160.960938 160.320312 160.960938 160.539062 L 160.960938 161.621094 " fill-opacity="1" fill-rule="nonzero"/><path fill="#4b5842" d="M 150.554688 166.007812 C 150.554688 166.230469 150.734375 166.285156 150.953125 166.132812 L 152.035156 165.386719 C 152.253906 165.238281 152.433594 164.933594 152.433594 164.714844 L 152.433594 163.632812 C 152.433594 163.414062 152.253906 163.355469 152.035156 163.507812 L 150.953125 164.253906 C 150.734375 164.40625 150.554688 164.707031 150.554688 164.929688 L 150.554688 166.007812 " fill-opacity="1" fill-rule="nonzero"/><path fill="#4b5842" d="M 152.964844 164.347656 C 152.964844 164.570312 153.144531 164.625 153.363281 164.472656 L 154.445312 163.726562 C 154.664062 163.574219 154.84375 163.273438 154.84375 163.050781 L 154.84375 161.972656 C 154.84375 161.75 154.664062 161.699219 154.445312 161.847656 L 153.363281 162.59375 C 153.144531 162.746094 152.964844 163.050781 152.964844 163.269531 L 152.964844 164.347656 " fill-opacity="1" fill-rule="nonzero"/><path fill="#4b5842" d="M 155.375 162.6875 C 155.375 162.910156 155.554688 162.964844 155.777344 162.8125 L 156.855469 162.066406 C 157.074219 161.917969 157.253906 161.613281 157.253906 161.394531 L 157.253906 160.3125 C 157.253906 160.09375 157.074219 160.035156 156.855469 160.191406 L 155.777344 160.933594 C 155.554688 161.085938 155.375 161.386719 155.375 161.609375 L 155.375 162.6875 " fill-opacity="1" fill-rule="nonzero"/><path fill="#4b5842" d="M 148.144531 167.667969 C 148.144531 167.890625 148.324219 167.945312 148.542969 167.792969 L 149.625 167.050781 C 149.84375 166.898438 150.023438 166.59375 150.023438 166.375 L 150.023438 165.296875 C 150.023438 165.074219 149.84375 165.019531 149.625 165.171875 L 148.542969 165.914062 C 148.324219 166.066406 148.144531 166.371094 148.144531 166.589844 L 148.144531 167.667969 " fill-opacity="1" fill-rule="nonzero"/><path fill="#4b5842" d="M 145.730469 169.328125 C 145.730469 169.550781 145.910156 169.605469 146.132812 169.453125 L 147.210938 168.710938 C 147.433594 168.558594 147.613281 168.257812 147.613281 168.035156 L 147.613281 166.957031 C 147.613281 166.734375 147.433594 166.679688 147.210938 166.828125 L 146.132812 167.578125 C 145.910156 167.726562 145.730469 168.027344 145.730469 168.25 L 145.730469 169.328125 " fill-opacity="1" fill-rule="nonzero"/><path fill="#4b5842" d="M 150.554688 169.726562 C 150.554688 169.949219 150.734375 170.003906 150.953125 169.851562 L 152.035156 169.109375 C 152.253906 168.957031 152.433594 168.652344 152.433594 168.433594 L 152.433594 167.351562 C 152.433594 167.132812 152.253906 167.078125 152.035156 167.230469 L 150.953125 167.972656 C 150.734375 168.125 150.554688 168.429688 150.554688 168.648438 L 150.554688 169.726562 " fill-opacity="1" fill-rule="nonzero"/><path fill="#4b5842" d="M 152.964844 168.066406 C 152.964844 168.289062 153.144531 168.34375 153.363281 168.191406 L 154.445312 167.449219 C 154.664062 167.296875 154.84375 166.996094 154.84375 166.773438 L 154.84375 165.691406 C 154.84375 165.472656 154.664062 165.417969 154.445312 165.570312 L 153.363281 166.3125 C 153.144531 166.464844 152.964844 166.765625 152.964844 166.988281 L 152.964844 168.066406 " fill-opacity="1" fill-rule="nonzero"/><path fill="#4b5842" d="M 155.375 166.40625 C 155.375 166.628906 155.554688 166.683594 155.777344 166.53125 L 156.855469 165.789062 C 157.074219 165.636719 157.253906 165.332031 157.253906 165.113281 L 157.253906 164.035156 C 157.253906 163.8125 157.074219 163.757812 156.855469 163.910156 L 155.777344 164.652344 C 155.554688 164.804688 155.375 165.105469 155.375 165.328125 L 155.375 166.40625 " fill-opacity="1" fill-rule="nonzero"/><path fill="#4b5842" d="M 148.144531 171.390625 C 148.144531 171.609375 148.324219 171.664062 148.542969 171.515625 L 149.625 170.769531 C 149.84375 170.617188 150.023438 170.316406 150.023438 170.09375 L 150.023438 169.015625 C 150.023438 168.792969 149.84375 168.738281 149.625 168.890625 L 148.542969 169.632812 C 148.324219 169.785156 148.144531 170.089844 148.144531 170.308594 L 148.144531 171.390625 " fill-opacity="1" fill-rule="nonzero"/><path fill="#4b5842" d="M 145.730469 173.050781 C 145.730469 173.269531 145.910156 173.328125 146.132812 173.171875 L 147.210938 172.429688 C 147.433594 172.277344 147.613281 171.976562 147.613281 171.753906 L 147.613281 170.675781 C 147.613281 170.453125 147.433594 170.398438 147.210938 170.550781 L 146.132812 171.292969 C 145.910156 171.445312 145.730469 171.75 145.730469 171.96875 L 145.730469 173.050781 " fill-opacity="1" fill-rule="nonzero"/><path fill="#4b5842" d="M 150.554688 173.449219 C 150.554688 173.667969 150.734375 173.726562 150.953125 173.574219 L 152.035156 172.828125 C 152.253906 172.675781 152.433594 172.375 152.433594 172.152344 L 152.433594 171.074219 C 152.433594 170.851562 152.253906 170.796875 152.035156 170.949219 L 150.953125 171.695312 C 150.734375 171.84375 150.554688 172.148438 150.554688 172.367188 L 150.554688 173.449219 " fill-opacity="1" fill-rule="nonzero"/><path fill="#4b5842" d="M 152.964844 171.789062 C 152.964844 172.007812 153.144531 172.0625 153.363281 171.910156 L 154.445312 171.167969 C 154.664062 171.015625 154.84375 170.714844 154.84375 170.492188 L 154.84375 169.414062 C 154.84375 169.191406 154.664062 169.136719 154.445312 169.289062 L 153.363281 170.03125 C 153.144531 170.183594 152.964844 170.488281 152.964844 170.707031 L 152.964844 171.789062 " fill-opacity="1" fill-rule="nonzero"/><path fill="#4b5842" d="M 155.375 170.128906 C 155.375 170.347656 155.554688 170.402344 155.777344 170.25 L 156.855469 169.507812 C 157.074219 169.355469 157.253906 169.054688 157.253906 168.832031 L 157.253906 167.753906 C 157.253906 167.53125 157.074219 167.476562 156.855469 167.628906 L 155.777344 168.375 C 155.554688 168.523438 155.375 168.828125 155.375 169.046875 L 155.375 170.128906 " fill-opacity="1" fill-rule="nonzero"/><path fill="#4b5842" d="M 148.144531 175.109375 C 148.144531 175.328125 148.324219 175.386719 148.542969 175.234375 L 149.625 174.488281 C 149.84375 174.335938 150.023438 174.035156 150.023438 173.816406 L 150.023438 172.734375 C 150.023438 172.511719 149.84375 172.457031 149.625 172.609375 L 148.542969 173.355469 C 148.324219 173.503906 148.144531 173.808594 148.144531 174.027344 L 148.144531 175.109375 " fill-opacity="1" fill-rule="nonzero"/><path fill="#4b5842" d="M 145.730469 176.769531 C 145.730469 176.992188 145.910156 177.046875 146.132812 176.894531 L 147.210938 176.148438 C 147.433594 175.996094 147.613281 175.695312 147.613281 175.476562 L 147.613281 174.394531 C 147.613281 174.175781 147.433594 174.117188 147.210938 174.273438 L 146.132812 175.015625 C 145.910156 175.167969 145.730469 175.46875 145.730469 175.691406 L 145.730469 176.769531 " fill-opacity="1" fill-rule="nonzero"/><path fill="#4b5842" d="M 150.554688 177.167969 C 150.554688 177.390625 150.734375 177.445312 150.953125 177.292969 L 152.035156 176.550781 C 152.253906 176.394531 152.433594 176.09375 152.433594 175.875 L 152.433594 174.792969 C 152.433594 174.574219 152.253906 174.515625 152.035156 174.667969 L 150.953125 175.414062 C 150.734375 175.566406 150.554688 175.867188 150.554688 176.089844 L 150.554688 177.167969 " fill-opacity="1" fill-rule="nonzero"/><path fill="#4b5842" d="M 152.964844 175.507812 C 152.964844 175.726562 153.144531 175.785156 153.363281 175.632812 L 154.445312 174.886719 C 154.664062 174.734375 154.84375 174.433594 154.84375 174.210938 L 154.84375 173.132812 C 154.84375 172.910156 154.664062 172.855469 154.445312 173.007812 L 153.363281 173.753906 C 153.144531 173.90625 152.964844 174.207031 152.964844 174.425781 L 152.964844 175.507812 " fill-opacity="1" fill-rule="nonzero"/><path fill="#4b5842" d="M 155.375 173.847656 C 155.375 174.070312 155.554688 174.121094 155.777344 173.972656 L 156.855469 173.226562 C 157.074219 173.074219 157.253906 172.773438 157.253906 172.554688 L 157.253906 171.472656 C 157.253906 171.25 157.074219 171.195312 156.855469 171.347656 L 155.777344 172.09375 C 155.554688 172.246094 155.375 172.546875 155.375 172.765625 L 155.375 173.847656 " fill-opacity="1" fill-rule="nonzero"/><path fill="#4b5842" d="M 148.144531 178.828125 C 148.144531 179.050781 148.324219 179.105469 148.542969 178.953125 L 149.625 178.210938 C 149.84375 178.054688 150.023438 177.753906 150.023438 177.535156 L 150.023438 176.453125 C 150.023438 176.230469 149.84375 176.179688 149.625 176.328125 L 148.542969 177.074219 C 148.324219 177.226562 148.144531 177.527344 148.144531 177.75 L 148.144531 178.828125 " fill-opacity="1" fill-rule="nonzero"/><path fill="#4b5842" d="M 145.730469 180.488281 C 145.730469 180.710938 145.910156 180.765625 146.132812 180.613281 L 147.210938 179.871094 C 147.433594 179.71875 147.613281 179.414062 147.613281 179.195312 L 147.613281 178.117188 C 147.613281 177.894531 147.433594 177.835938 147.210938 177.992188 L 146.132812 178.734375 C 145.910156 178.886719 145.730469 179.1875 145.730469 179.410156 L 145.730469 180.488281 " fill-opacity="1" fill-rule="nonzero"/><path fill="#4b5842" d="M 150.554688 180.886719 C 150.554688 181.109375 150.734375 181.164062 150.953125 181.011719 L 152.035156 180.265625 C 152.253906 180.117188 152.433594 179.8125 152.433594 179.59375 L 152.433594 178.515625 C 152.433594 178.292969 152.253906 178.238281 152.035156 178.386719 L 150.953125 179.132812 C 150.734375 179.285156 150.554688 179.585938 150.554688 179.808594 L 150.554688 180.886719 " fill-opacity="1" fill-rule="nonzero"/><path fill="#4b5842" d="M 152.964844 179.230469 C 152.964844 179.449219 153.144531 179.503906 153.363281 179.351562 L 154.445312 178.609375 C 154.664062 178.457031 154.84375 178.152344 154.84375 177.933594 L 154.84375 176.851562 C 154.84375 176.628906 154.664062 176.578125 154.445312 176.726562 L 153.363281 177.472656 C 153.144531 177.625 152.964844 177.925781 152.964844 178.148438 L 152.964844 179.230469 " fill-opacity="1" fill-rule="nonzero"/><path fill="#4b5842" d="M 155.375 177.566406 C 155.375 177.789062 155.554688 177.84375 155.777344 177.691406 L 156.855469 176.945312 C 157.074219 176.796875 157.253906 176.492188 157.253906 176.273438 L 157.253906 175.191406 C 157.253906 174.972656 157.074219 174.914062 156.855469 175.066406 L 155.777344 175.8125 C 155.554688 175.964844 155.375 176.265625 155.375 176.488281 L 155.375 177.566406 " fill-opacity="1" fill-rule="nonzero"/><path fill="#4b5842" d="M 165.78125 167.296875 C 165.78125 167.515625 165.960938 167.769531 166.179688 167.859375 L 167.261719 168.3125 C 167.484375 168.402344 167.664062 168.296875 167.664062 168.078125 L 167.664062 166.996094 C 167.664062 166.777344 167.484375 166.523438 167.261719 166.429688 L 166.179688 165.980469 C 165.960938 165.890625 165.78125 165.992188 165.78125 166.214844 L 165.78125 167.296875 " fill-opacity="1" fill-rule="nonzero"/><path fill="#4b5842" d="M 168.191406 168.296875 C 168.191406 168.515625 168.371094 168.773438 168.59375 168.863281 L 169.671875 169.3125 C 169.894531 169.40625 170.070312 169.300781 170.070312 169.078125 L 170.070312 168 C 170.070312 167.78125 169.894531 167.527344 169.671875 167.433594 L 168.59375 166.984375 C 168.371094 166.894531 168.191406 166.996094 168.191406 167.21875 L 168.191406 168.296875 " fill-opacity="1" fill-rule="nonzero"/><path fill="#4b5842" d="M 170.601562 169.300781 C 170.601562 169.523438 170.78125 169.773438 171.003906 169.867188 L 172.082031 170.316406 C 172.304688 170.410156 172.484375 170.304688 172.484375 170.085938 L 172.484375 169.003906 C 172.484375 168.785156 172.304688 168.527344 172.082031 168.4375 L 171.003906 167.988281 C 170.78125 167.898438 170.601562 168 170.601562 168.21875 L 170.601562 169.300781 " fill-opacity="1" fill-rule="nonzero"/><path fill="#4b5842" d="M 163.371094 166.289062 C 163.371094 166.511719 163.550781 166.765625 163.769531 166.855469 L 164.851562 167.308594 C 165.070312 167.398438 165.25 167.296875 165.25 167.074219 L 165.25 165.992188 C 165.25 165.773438 165.070312 165.519531 164.851562 165.425781 L 163.769531 164.976562 C 163.550781 164.886719 163.371094 164.992188 163.371094 165.210938 L 163.371094 166.289062 " fill-opacity="1" fill-rule="nonzero"/><path fill="#4b5842" d="M 160.960938 165.285156 C 160.960938 165.507812 161.140625 165.761719 161.359375 165.855469 L 162.441406 166.300781 C 162.660156 166.394531 162.839844 166.289062 162.839844 166.070312 L 162.839844 164.988281 C 162.839844 164.769531 162.660156 164.515625 162.441406 164.425781 L 161.359375 163.972656 C 161.140625 163.882812 160.960938 163.984375 160.960938 164.207031 L 160.960938 165.285156 " fill-opacity="1" fill-rule="nonzero"/><path fill="#4b5842" d="M 165.78125 170.960938 C 165.78125 171.183594 165.960938 171.4375 166.179688 171.527344 L 167.261719 171.976562 C 167.484375 172.070312 167.664062 171.964844 167.664062 171.746094 L 167.664062 170.664062 C 167.664062 170.445312 167.484375 170.191406 167.261719 170.097656 L 166.179688 169.648438 C 165.960938 169.554688 165.78125 169.660156 165.78125 169.882812 L 165.78125 170.960938 " fill-opacity="1" fill-rule="nonzero"/><path fill="#4b5842" d="M 168.191406 171.964844 C 168.191406 172.1875 168.371094 172.441406 168.59375 172.53125 L 169.671875 172.980469 C 169.894531 173.074219 170.070312 172.96875 170.070312 172.75 L 170.070312 171.667969 C 170.070312 171.445312 169.894531 171.195312 169.671875 171.101562 L 168.59375 170.652344 C 168.371094 170.558594 168.191406 170.664062 168.191406 170.886719 L 168.191406 171.964844 " fill-opacity="1" fill-rule="nonzero"/><path fill="#4b5842" d="M 170.601562 172.96875 C 170.601562 173.1875 170.78125 173.445312 171.003906 173.535156 L 172.082031 173.984375 C 172.304688 174.078125 172.484375 173.972656 172.484375 173.753906 L 172.484375 172.671875 C 172.484375 172.449219 172.304688 172.199219 172.082031 172.105469 L 171.003906 171.65625 C 170.78125 171.5625 170.601562 171.667969 170.601562 171.890625 L 170.601562 172.96875 " fill-opacity="1" fill-rule="nonzero"/><path fill="#4b5842" d="M 163.371094 169.957031 C 163.371094 170.179688 163.550781 170.433594 163.769531 170.523438 L 164.851562 170.976562 C 165.070312 171.066406 165.25 170.960938 165.25 170.742188 L 165.25 169.660156 C 165.25 169.441406 165.070312 169.1875 164.851562 169.097656 L 163.769531 168.644531 C 163.550781 168.554688 163.371094 168.65625 163.371094 168.878906 L 163.371094 169.957031 " fill-opacity="1" fill-rule="nonzero"/><path fill="#4b5842" d="M 160.960938 168.957031 C 160.960938 169.175781 161.140625 169.429688 161.359375 169.523438 L 162.441406 169.972656 C 162.660156 170.0625 162.839844 169.957031 162.839844 169.738281 L 162.839844 168.65625 C 162.839844 168.4375 162.660156 168.183594 162.441406 168.09375 L 161.359375 167.640625 C 161.140625 167.550781 160.960938 167.65625 160.960938 167.875 L 160.960938 168.957031 " fill-opacity="1" fill-rule="nonzero"/><path fill="#4b5842" d="M 165.78125 174.628906 C 165.78125 174.851562 165.960938 175.105469 166.179688 175.195312 L 167.261719 175.644531 C 167.484375 175.738281 167.664062 175.632812 167.664062 175.414062 L 167.664062 174.332031 C 167.664062 174.113281 167.484375 173.859375 167.261719 173.769531 L 166.179688 173.316406 C 165.960938 173.226562 165.78125 173.328125 165.78125 173.550781 L 165.78125 174.628906 " fill-opacity="1" fill-rule="nonzero"/><path fill="#4b5842" d="M 168.191406 175.632812 C 168.191406 175.855469 168.371094 176.109375 168.59375 176.199219 L 169.671875 176.648438 C 169.894531 176.742188 170.070312 176.636719 170.070312 176.417969 L 170.070312 175.335938 C 170.070312 175.117188 169.894531 174.863281 169.671875 174.769531 L 168.59375 174.320312 C 168.371094 174.226562 168.191406 174.332031 168.191406 174.554688 L 168.191406 175.632812 " fill-opacity="1" fill-rule="nonzero"/><path fill="#4b5842" d="M 170.601562 176.636719 C 170.601562 176.859375 170.78125 177.109375 171.003906 177.203125 L 172.082031 177.652344 C 172.304688 177.746094 172.484375 177.640625 172.484375 177.417969 L 172.484375 176.339844 C 172.484375 176.117188 172.304688 175.867188 172.082031 175.773438 L 171.003906 175.324219 C 170.78125 175.234375 170.601562 175.335938 170.601562 175.558594 L 170.601562 176.636719 " fill-opacity="1" fill-rule="nonzero"/><path fill="#4b5842" d="M 163.371094 173.628906 C 163.371094 173.847656 163.550781 174.101562 163.769531 174.195312 L 164.851562 174.644531 C 165.070312 174.734375 165.25 174.628906 165.25 174.410156 L 165.25 173.328125 C 165.25 173.109375 165.070312 172.855469 164.851562 172.761719 L 163.769531 172.3125 C 163.550781 172.222656 163.371094 172.328125 163.371094 172.546875 L 163.371094 173.628906 " fill-opacity="1" fill-rule="nonzero"/><path fill="#4b5842" d="M 160.960938 172.625 C 160.960938 172.84375 161.140625 173.097656 161.359375 173.1875 L 162.441406 173.640625 C 162.660156 173.730469 162.839844 173.628906 162.839844 173.40625 L 162.839844 172.328125 C 162.839844 172.105469 162.660156 171.851562 162.441406 171.761719 L 161.359375 171.3125 C 161.140625 171.21875 160.960938 171.324219 160.960938 171.542969 L 160.960938 172.625 " fill-opacity="1" fill-rule="nonzero"/><path fill="#4b5842" d="M 150.554688 184.589844 C 150.554688 184.808594 150.734375 184.867188 150.953125 184.714844 L 152.035156 183.96875 C 152.253906 183.816406 152.433594 183.515625 152.433594 183.292969 L 152.433594 182.214844 C 152.433594 181.992188 152.253906 181.9375 152.035156 182.089844 L 150.953125 182.835938 C 150.734375 182.984375 150.554688 183.289062 150.554688 183.507812 L 150.554688 184.589844 " fill-opacity="1" fill-rule="nonzero"/><path fill="#4b5842" d="M 152.964844 182.929688 C 152.964844 183.148438 153.144531 183.203125 153.363281 183.054688 L 154.445312 182.308594 C 154.664062 182.15625 154.84375 181.855469 154.84375 181.632812 L 154.84375 180.550781 C 154.84375 180.332031 154.664062 180.277344 154.445312 180.429688 L 153.363281 181.171875 C 153.144531 181.324219 152.964844 181.628906 152.964844 181.851562 L 152.964844 182.929688 " fill-opacity="1" fill-rule="nonzero"/><path fill="#4b5842" d="M 155.375 181.269531 C 155.375 181.488281 155.554688 181.542969 155.777344 181.394531 L 156.855469 180.648438 C 157.074219 180.496094 157.253906 180.195312 157.253906 179.972656 L 157.253906 178.894531 C 157.253906 178.671875 157.074219 178.617188 156.855469 178.769531 L 155.777344 179.515625 C 155.554688 179.664062 155.375 179.96875 155.375 180.1875 L 155.375 181.269531 " fill-opacity="1" fill-rule="nonzero"/><path fill="#4b5842" d="M 148.144531 186.25 C 148.144531 186.46875 148.324219 186.523438 148.542969 186.375 L 149.625 185.628906 C 149.84375 185.476562 150.023438 185.175781 150.023438 184.957031 L 150.023438 183.875 C 150.023438 183.652344 149.84375 183.597656 149.625 183.75 L 148.542969 184.496094 C 148.324219 184.648438 148.144531 184.949219 148.144531 185.167969 L 148.144531 186.25 " fill-opacity="1" fill-rule="nonzero"/><path fill="#4b5842" d="M 145.730469 187.910156 C 145.730469 188.128906 145.910156 188.1875 146.132812 188.035156 L 147.210938 187.289062 C 147.433594 187.136719 147.613281 186.835938 147.613281 186.613281 L 147.613281 185.535156 C 147.613281 185.316406 147.433594 185.257812 147.210938 185.410156 L 146.132812 186.15625 C 145.910156 186.308594 145.730469 186.609375 145.730469 186.828125 L 145.730469 187.910156 " fill-opacity="1" fill-rule="nonzero"/><path fill="#4b5842" d="M 150.554688 188.308594 C 150.554688 188.53125 150.734375 188.585938 150.953125 188.433594 L 152.035156 187.691406 C 152.253906 187.535156 152.433594 187.234375 152.433594 187.015625 L 152.433594 185.933594 C 152.433594 185.714844 152.253906 185.660156 152.035156 185.808594 L 150.953125 186.554688 C 150.734375 186.707031 150.554688 187.007812 150.554688 187.230469 L 150.554688 188.308594 " fill-opacity="1" fill-rule="nonzero"/><path fill="#4b5842" d="M 152.964844 186.648438 C 152.964844 186.867188 153.144531 186.921875 153.363281 186.773438 L 154.445312 186.027344 C 154.664062 185.875 154.84375 185.574219 154.84375 185.351562 L 154.84375 184.273438 C 154.84375 184.054688 154.664062 183.996094 154.445312 184.148438 L 153.363281 184.894531 C 153.144531 185.046875 152.964844 185.347656 152.964844 185.566406 L 152.964844 186.648438 " fill-opacity="1" fill-rule="nonzero"/><path fill="#4b5842" d="M 155.375 184.988281 C 155.375 185.210938 155.554688 185.265625 155.777344 185.113281 L 156.855469 184.367188 C 157.074219 184.214844 157.253906 183.914062 157.253906 183.691406 L 157.253906 182.613281 C 157.253906 182.394531 157.074219 182.335938 156.855469 182.488281 L 155.777344 183.234375 C 155.554688 183.386719 155.375 183.6875 155.375 183.90625 L 155.375 184.988281 " fill-opacity="1" fill-rule="nonzero"/><path fill="#4b5842" d="M 148.144531 189.96875 C 148.144531 190.191406 148.324219 190.246094 148.542969 190.09375 L 149.625 189.347656 C 149.84375 189.195312 150.023438 188.894531 150.023438 188.675781 L 150.023438 187.59375 C 150.023438 187.371094 149.84375 187.320312 149.625 187.46875 L 148.542969 188.214844 C 148.324219 188.367188 148.144531 188.667969 148.144531 188.890625 L 148.144531 189.96875 " fill-opacity="1" fill-rule="nonzero"/><path fill="#4b5842" d="M 145.730469 191.628906 C 145.730469 191.851562 145.910156 191.90625 146.132812 191.753906 L 147.210938 191.011719 C 147.433594 190.859375 147.613281 190.554688 147.613281 190.335938 L 147.613281 189.253906 C 147.613281 189.035156 147.433594 188.976562 147.210938 189.132812 L 146.132812 189.875 C 145.910156 190.027344 145.730469 190.328125 145.730469 190.550781 L 145.730469 191.628906 " fill-opacity="1" fill-rule="nonzero"/><path fill="#4b5842" d="M 165.78125 182.101562 C 165.78125 182.324219 165.960938 182.574219 166.179688 182.667969 L 167.261719 183.117188 C 167.484375 183.210938 167.664062 183.105469 167.664062 182.886719 L 167.664062 181.804688 C 167.664062 181.585938 167.484375 181.332031 167.261719 181.238281 L 166.179688 180.789062 C 165.960938 180.699219 165.78125 180.800781 165.78125 181.023438 L 165.78125 182.101562 " fill-opacity="1" fill-rule="nonzero"/><path fill="#4b5842" d="M 168.191406 183.105469 C 168.191406 183.328125 168.371094 183.582031 168.59375 183.671875 L 169.671875 184.121094 C 169.894531 184.214844 170.070312 184.109375 170.070312 183.886719 L 170.070312 182.808594 C 170.070312 182.585938 169.894531 182.335938 169.671875 182.242188 L 168.59375 181.792969 C 168.371094 181.699219 168.191406 181.804688 168.191406 182.027344 L 168.191406 183.105469 " fill-opacity="1" fill-rule="nonzero"/><path fill="#4b5842" d="M 170.601562 184.109375 C 170.601562 184.332031 170.78125 184.585938 171.003906 184.675781 L 172.082031 185.125 C 172.304688 185.21875 172.484375 185.113281 172.484375 184.894531 L 172.484375 183.8125 C 172.484375 183.589844 172.304688 183.339844 172.082031 183.246094 L 171.003906 182.796875 C 170.78125 182.703125 170.601562 182.808594 170.601562 183.03125 L 170.601562 184.109375 " fill-opacity="1" fill-rule="nonzero"/><path fill="#4b5842" d="M 163.371094 181.097656 C 163.371094 181.320312 163.550781 181.574219 163.769531 181.664062 L 164.851562 182.117188 C 165.070312 182.207031 165.25 182.101562 165.25 181.882812 L 165.25 180.800781 C 165.25 180.582031 165.070312 180.328125 164.851562 180.238281 L 163.769531 179.785156 C 163.550781 179.695312 163.371094 179.796875 163.371094 180.019531 L 163.371094 181.097656 " fill-opacity="1" fill-rule="nonzero"/><path fill="#4b5842" d="M 160.960938 180.097656 C 160.960938 180.316406 161.140625 180.570312 161.359375 180.660156 L 162.441406 181.113281 C 162.660156 181.203125 162.839844 181.097656 162.839844 180.878906 L 162.839844 179.796875 C 162.839844 179.578125 162.660156 179.324219 162.441406 179.230469 L 161.359375 178.78125 C 161.140625 178.691406 160.960938 178.796875 160.960938 179.015625 L 160.960938 180.097656 " fill-opacity="1" fill-rule="nonzero"/><path fill="#4b5842" d="M 165.78125 185.769531 C 165.78125 185.992188 165.960938 186.246094 166.179688 186.335938 L 167.261719 186.785156 C 167.484375 186.878906 167.664062 186.773438 167.664062 186.554688 L 167.664062 185.472656 C 167.664062 185.253906 167.484375 185 167.261719 184.90625 L 166.179688 184.457031 C 165.960938 184.367188 165.78125 184.46875 165.78125 184.691406 L 165.78125 185.769531 " fill-opacity="1" fill-rule="nonzero"/><path fill="#4b5842" d="M 168.191406 186.773438 C 168.191406 186.996094 168.371094 187.25 168.59375 187.339844 L 169.671875 187.789062 C 169.894531 187.882812 170.070312 187.777344 170.070312 187.558594 L 170.070312 186.476562 C 170.070312 186.257812 169.894531 186.003906 169.671875 185.910156 L 168.59375 185.460938 C 168.371094 185.367188 168.191406 185.472656 168.191406 185.695312 L 168.191406 186.773438 " fill-opacity="1" fill-rule="nonzero"/><path fill="#4b5842" d="M 170.601562 187.777344 C 170.601562 188 170.78125 188.25 171.003906 188.34375 L 172.082031 188.792969 C 172.304688 188.886719 172.484375 188.78125 172.484375 188.558594 L 172.484375 187.480469 C 172.484375 187.257812 172.304688 187.007812 172.082031 186.914062 L 171.003906 186.464844 C 170.78125 186.375 170.601562 186.476562 170.601562 186.699219 L 170.601562 187.777344 " fill-opacity="1" fill-rule="nonzero"/><path fill="#4b5842" d="M 163.371094 184.769531 C 163.371094 184.988281 163.550781 185.242188 163.769531 185.335938 L 164.851562 185.785156 C 165.070312 185.875 165.25 185.769531 165.25 185.550781 L 165.25 184.46875 C 165.25 184.25 165.070312 183.996094 164.851562 183.902344 L 163.769531 183.453125 C 163.550781 183.363281 163.371094 183.46875 163.371094 183.6875 L 163.371094 184.769531 " fill-opacity="1" fill-rule="nonzero"/><path fill="#4b5842" d="M 160.960938 183.765625 C 160.960938 183.984375 161.140625 184.238281 161.359375 184.332031 L 162.441406 184.78125 C 162.660156 184.871094 162.839844 184.769531 162.839844 184.546875 L 162.839844 183.46875 C 162.839844 183.246094 162.660156 182.992188 162.441406 182.902344 L 161.359375 182.453125 C 161.140625 182.359375 160.960938 182.464844 160.960938 182.683594 L 160.960938 183.765625 " fill-opacity="1" fill-rule="nonzero"/><path fill="#4b5842" d="M 165.78125 178.300781 C 165.78125 178.519531 165.960938 178.773438 166.179688 178.863281 L 167.261719 179.316406 C 167.484375 179.40625 167.664062 179.300781 167.664062 179.082031 L 167.664062 178 C 167.664062 177.78125 167.484375 177.527344 167.261719 177.433594 L 166.179688 176.984375 C 165.960938 176.894531 165.78125 177 165.78125 177.21875 L 165.78125 178.300781 " fill-opacity="1" fill-rule="nonzero"/><path fill="#4b5842" d="M 168.191406 179.300781 C 168.191406 179.523438 168.371094 179.777344 168.59375 179.867188 L 169.671875 180.316406 C 169.894531 180.410156 170.070312 180.304688 170.070312 180.085938 L 170.070312 179.003906 C 170.070312 178.78125 169.894531 178.53125 169.671875 178.4375 L 168.59375 177.988281 C 168.371094 177.898438 168.191406 178 168.191406 178.21875 L 168.191406 179.300781 " fill-opacity="1" fill-rule="nonzero"/><path fill="#4b5842" d="M 170.601562 180.304688 C 170.601562 180.523438 170.78125 180.78125 171.003906 180.871094 L 172.082031 181.320312 C 172.304688 181.414062 172.484375 181.308594 172.484375 181.085938 L 172.484375 180.007812 C 172.484375 179.785156 172.304688 179.535156 172.082031 179.441406 L 171.003906 178.992188 C 170.78125 178.898438 170.601562 179.003906 170.601562 179.226562 L 170.601562 180.304688 " fill-opacity="1" fill-rule="nonzero"/><path fill="#4b5842" d="M 163.371094 177.296875 C 163.371094 177.515625 163.550781 177.769531 163.769531 177.863281 L 164.851562 178.3125 C 165.070312 178.402344 165.25 178.300781 165.25 178.078125 L 165.25 177 C 165.25 176.777344 165.070312 176.523438 164.851562 176.429688 L 163.769531 175.980469 C 163.550781 175.890625 163.371094 175.996094 163.371094 176.214844 L 163.371094 177.296875 " fill-opacity="1" fill-rule="nonzero"/><path fill="#4b5842" d="M 160.960938 176.292969 C 160.960938 176.511719 161.140625 176.765625 161.359375 176.859375 L 162.441406 177.308594 C 162.660156 177.398438 162.839844 177.296875 162.839844 177.074219 L 162.839844 175.996094 C 162.839844 175.773438 162.660156 175.519531 162.441406 175.425781 L 161.359375 174.980469 C 161.140625 174.886719 160.960938 174.992188 160.960938 175.210938 L 160.960938 176.292969 " fill-opacity="1" fill-rule="nonzero"/><path fill="#4b5842" d="M 148.144531 182.507812 C 148.144531 182.726562 148.324219 182.78125 148.542969 182.628906 L 149.625 181.886719 C 149.84375 181.734375 150.023438 181.433594 150.023438 181.210938 L 150.023438 180.132812 C 150.023438 179.910156 149.84375 179.855469 149.625 180.007812 L 148.542969 180.75 C 148.324219 180.902344 148.144531 181.207031 148.144531 181.425781 L 148.144531 182.507812 " fill-opacity="1" fill-rule="nonzero"/><path fill="#4b5842" d="M 145.730469 184.167969 C 145.730469 184.386719 145.910156 184.445312 146.132812 184.289062 L 147.210938 183.546875 C 147.433594 183.394531 147.613281 183.089844 147.613281 182.871094 L 147.613281 181.792969 C 147.613281 181.570312 147.433594 181.515625 147.210938 181.667969 L 146.132812 182.410156 C 145.910156 182.5625 145.730469 182.867188 145.730469 183.085938 L 145.730469 184.167969 " fill-opacity="1" fill-rule="nonzero"/><path fill="#4b5842" d="M 150.554688 192.179688 C 150.554688 192.402344 150.734375 192.457031 150.953125 192.304688 L 152.035156 191.5625 C 152.253906 191.410156 152.433594 191.105469 152.433594 190.886719 L 152.433594 189.804688 C 152.433594 189.585938 152.253906 189.53125 152.035156 189.683594 L 150.953125 190.425781 C 150.734375 190.578125 150.554688 190.878906 150.554688 191.101562 L 150.554688 192.179688 " fill-opacity="1" fill-rule="nonzero"/><path fill="#4b5842" d="M 152.964844 190.519531 C 152.964844 190.742188 153.144531 190.796875 153.363281 190.644531 L 154.445312 189.902344 C 154.664062 189.75 154.84375 189.445312 154.84375 189.226562 L 154.84375 188.144531 C 154.84375 187.925781 154.664062 187.871094 154.445312 188.023438 L 153.363281 188.765625 C 153.144531 188.917969 152.964844 189.222656 152.964844 189.441406 L 152.964844 190.519531 " fill-opacity="1" fill-rule="nonzero"/><path fill="#4b5842" d="M 155.375 188.859375 C 155.375 189.082031 155.554688 189.136719 155.777344 188.984375 L 156.855469 188.238281 C 157.074219 188.089844 157.253906 187.785156 157.253906 187.566406 L 157.253906 186.484375 C 157.253906 186.265625 157.074219 186.207031 156.855469 186.363281 L 155.777344 187.105469 C 155.554688 187.257812 155.375 187.558594 155.375 187.78125 L 155.375 188.859375 " fill-opacity="1" fill-rule="nonzero"/><path fill="#4b5842" d="M 148.144531 193.839844 C 148.144531 194.0625 148.324219 194.117188 148.542969 193.964844 L 149.625 193.222656 C 149.84375 193.070312 150.023438 192.769531 150.023438 192.546875 L 150.023438 191.46875 C 150.023438 191.246094 149.84375 191.191406 149.625 191.34375 L 148.542969 192.085938 C 148.324219 192.238281 148.144531 192.539062 148.144531 192.761719 L 148.144531 193.839844 " fill-opacity="1" fill-rule="nonzero"/><path fill="#4b5842" d="M 145.730469 195.503906 C 145.730469 195.722656 145.910156 195.777344 146.132812 195.625 L 147.210938 194.882812 C 147.433594 194.730469 147.613281 194.429688 147.613281 194.207031 L 147.613281 193.125 C 147.613281 192.90625 147.433594 192.851562 147.210938 193.003906 L 146.132812 193.746094 C 145.910156 193.898438 145.730469 194.199219 145.730469 194.421875 L 145.730469 195.503906 " fill-opacity="1" fill-rule="nonzero"/><path fill="#4b5842" d="M 150.554688 195.902344 C 150.554688 196.121094 150.734375 196.175781 150.953125 196.023438 L 152.035156 195.28125 C 152.253906 195.128906 152.433594 194.824219 152.433594 194.605469 L 152.433594 193.523438 C 152.433594 193.304688 152.253906 193.25 152.035156 193.402344 L 150.953125 194.144531 C 150.734375 194.296875 150.554688 194.601562 150.554688 194.820312 L 150.554688 195.902344 " fill-opacity="1" fill-rule="nonzero"/><path fill="#4b5842" d="M 152.964844 194.242188 C 152.964844 194.460938 153.144531 194.515625 153.363281 194.363281 L 154.445312 193.621094 C 154.664062 193.46875 154.84375 193.167969 154.84375 192.945312 L 154.84375 191.867188 C 154.84375 191.644531 154.664062 191.589844 154.445312 191.742188 L 153.363281 192.484375 C 153.144531 192.636719 152.964844 192.9375 152.964844 193.160156 L 152.964844 194.242188 " fill-opacity="1" fill-rule="nonzero"/><path fill="#4b5842" d="M 155.375 192.578125 C 155.375 192.800781 155.554688 192.855469 155.777344 192.703125 L 156.855469 191.960938 C 157.074219 191.808594 157.253906 191.503906 157.253906 191.285156 L 157.253906 190.203125 C 157.253906 189.984375 157.074219 189.929688 156.855469 190.078125 L 155.777344 190.824219 C 155.554688 190.976562 155.375 191.277344 155.375 191.5 L 155.375 192.578125 " fill-opacity="1" fill-rule="nonzero"/><path fill="#4b5842" d="M 149.9375 196.5625 C 149.988281 196.460938 150.023438 196.355469 150.023438 196.265625 L 150.023438 195.1875 C 150.023438 194.964844 149.84375 194.910156 149.625 195.0625 L 148.542969 195.808594 C 148.324219 195.957031 148.144531 196.261719 148.144531 196.480469 L 148.144531 196.933594 C 148.742188 196.804688 149.335938 196.679688 149.9375 196.5625 " fill-opacity="1" fill-rule="nonzero"/><path fill="#4b5842" d="M 147.613281 197.050781 L 147.613281 196.847656 C 147.613281 196.625 147.433594 196.570312 147.210938 196.722656 L 146.28125 197.363281 C 146.726562 197.253906 147.167969 197.152344 147.613281 197.050781 " fill-opacity="1" fill-rule="nonzero"/><path fill="#4b5842" d="M 157.089844 195.433594 C 157.1875 195.292969 157.253906 195.136719 157.253906 195.003906 L 157.253906 193.925781 C 157.253906 193.703125 157.074219 193.648438 156.855469 193.800781 L 155.777344 194.542969 C 155.554688 194.699219 155.375 195 155.375 195.21875 L 155.375 195.65625 C 155.945312 195.578125 156.519531 195.503906 157.089844 195.433594 " fill-opacity="1" fill-rule="nonzero"/><path fill="#4b5842" d="M 165.78125 189.695312 C 165.78125 189.917969 165.960938 190.167969 166.179688 190.257812 L 167.261719 190.710938 C 167.484375 190.804688 167.664062 190.695312 167.664062 190.476562 L 167.664062 189.398438 C 167.664062 189.175781 167.484375 188.925781 167.261719 188.832031 L 166.179688 188.382812 C 165.960938 188.289062 165.78125 188.394531 165.78125 188.617188 L 165.78125 189.695312 " fill-opacity="1" fill-rule="nonzero"/><path fill="#4b5842" d="M 168.191406 190.695312 C 168.191406 190.917969 168.371094 191.171875 168.59375 191.265625 L 169.671875 191.714844 C 169.894531 191.804688 170.070312 191.699219 170.070312 191.480469 L 170.070312 190.398438 C 170.070312 190.179688 169.894531 189.925781 169.671875 189.835938 L 168.59375 189.382812 C 168.371094 189.292969 168.191406 189.398438 168.191406 189.617188 L 168.191406 190.695312 " fill-opacity="1" fill-rule="nonzero"/><path fill="#4b5842" d="M 170.601562 191.703125 C 170.601562 191.921875 170.78125 192.175781 171.003906 192.269531 L 172.082031 192.71875 C 172.304688 192.808594 172.484375 192.703125 172.484375 192.484375 L 172.484375 191.40625 C 172.484375 191.183594 172.304688 190.929688 172.082031 190.839844 L 171.003906 190.386719 C 170.78125 190.296875 170.601562 190.402344 170.601562 190.621094 L 170.601562 191.703125 " fill-opacity="1" fill-rule="nonzero"/><path fill="#4b5842" d="M 163.371094 188.691406 C 163.371094 188.914062 163.550781 189.164062 163.769531 189.257812 L 164.851562 189.707031 C 165.070312 189.800781 165.25 189.695312 165.25 189.472656 L 165.25 188.394531 C 165.25 188.171875 165.070312 187.921875 164.851562 187.828125 L 163.769531 187.378906 C 163.550781 187.285156 163.371094 187.390625 163.371094 187.613281 L 163.371094 188.691406 " fill-opacity="1" fill-rule="nonzero"/><path fill="#4b5842" d="M 160.960938 187.6875 C 160.960938 187.910156 161.140625 188.160156 161.359375 188.253906 L 162.441406 188.703125 C 162.660156 188.796875 162.839844 188.691406 162.839844 188.46875 L 162.839844 187.390625 C 162.839844 187.167969 162.660156 186.914062 162.441406 186.824219 L 161.359375 186.375 C 161.140625 186.28125 160.960938 186.386719 160.960938 186.609375 L 160.960938 187.6875 " fill-opacity="1" fill-rule="nonzero"/><path fill="#4b5842" d="M 165.78125 193.363281 C 165.78125 193.585938 165.960938 193.835938 166.179688 193.929688 L 167.261719 194.378906 C 167.484375 194.46875 167.664062 194.367188 167.664062 194.144531 L 167.664062 193.066406 C 167.664062 192.84375 167.484375 192.589844 167.261719 192.5 L 166.179688 192.050781 C 165.960938 191.957031 165.78125 192.0625 165.78125 192.28125 L 165.78125 193.363281 " fill-opacity="1" fill-rule="nonzero"/><path fill="#4b5842" d="M 170.070312 194.429688 L 170.070312 194.070312 C 170.070312 193.847656 169.894531 193.59375 169.671875 193.503906 L 168.59375 193.054688 C 168.371094 192.960938 168.191406 193.066406 168.191406 193.289062 L 168.191406 194.367188 C 168.191406 194.414062 168.203125 194.460938 168.21875 194.507812 C 168.835938 194.480469 169.453125 194.453125 170.070312 194.429688 " fill-opacity="1" fill-rule="nonzero"/><path fill="#4b5842" d="M 171.722656 194.355469 L 171.003906 194.058594 C 170.78125 193.964844 170.601562 194.070312 170.601562 194.289062 L 170.601562 194.402344 C 170.976562 194.390625 171.347656 194.371094 171.722656 194.355469 " fill-opacity="1" fill-rule="nonzero"/><path fill="#4b5842" d="M 163.371094 192.359375 C 163.371094 192.578125 163.550781 192.835938 163.769531 192.925781 L 164.851562 193.375 C 165.070312 193.46875 165.25 193.363281 165.25 193.140625 L 165.25 192.0625 C 165.25 191.839844 165.070312 191.585938 164.851562 191.496094 L 163.769531 191.046875 C 163.550781 190.957031 163.371094 191.058594 163.371094 191.28125 L 163.371094 192.359375 " fill-opacity="1" fill-rule="nonzero"/><path fill="#4b5842" d="M 160.960938 191.355469 C 160.960938 191.574219 161.140625 191.832031 161.359375 191.921875 L 162.441406 192.371094 C 162.660156 192.464844 162.839844 192.359375 162.839844 192.136719 L 162.839844 191.058594 C 162.839844 190.839844 162.660156 190.585938 162.441406 190.492188 L 161.359375 190.042969 C 161.140625 189.949219 160.960938 190.054688 160.960938 190.277344 L 160.960938 191.355469 " fill-opacity="1" fill-rule="nonzero"/><path fill="#4b5842" d="M 162.839844 194.855469 L 162.839844 194.726562 C 162.839844 194.507812 162.660156 194.253906 162.441406 194.160156 L 161.359375 193.710938 C 161.140625 193.621094 160.960938 193.722656 160.960938 193.945312 L 160.960938 195.019531 C 161.585938 194.960938 162.214844 194.90625 162.839844 194.855469 " fill-opacity="1" fill-rule="nonzero"/><path fill="#4b5842" d="M 176.472656 151.640625 C 176.804688 151.640625 177.074219 151.371094 177.074219 151.042969 L 177.074219 139.339844 L 182.523438 134.996094 L 190.027344 138.125 L 190.027344 149.847656 C 190.027344 150.179688 190.296875 150.445312 190.628906 150.445312 C 190.957031 150.445312 191.226562 150.179688 191.226562 149.847656 L 191.226562 137.726562 C 191.226562 137.484375 191.082031 137.265625 190.859375 137.171875 L 182.65625 133.753906 C 182.453125 133.671875 182.222656 133.703125 182.050781 133.839844 L 176.101562 138.582031 C 175.960938 138.695312 175.875 138.867188 175.875 139.050781 L 175.875 151.042969 C 175.875 151.371094 176.144531 151.640625 176.472656 151.640625 " fill-opacity="1" fill-rule="nonzero"/><path fill="#4b5842" d="M 184.066406 144.9375 C 184.066406 145.261719 184.328125 145.621094 184.652344 145.742188 L 188.4375 147.296875 C 188.761719 147.414062 189.023438 147.25 189.023438 146.921875 L 189.023438 139.796875 C 189.023438 139.476562 188.761719 139.113281 188.4375 138.996094 L 184.652344 137.441406 C 184.328125 137.320312 184.066406 137.488281 184.066406 137.8125 L 184.066406 144.9375 " fill-opacity="1" fill-rule="nonzero"/><path fill="#4b5842" d="M 174.425781 194.28125 L 174.425781 154.019531 L 182.535156 147.558594 L 193.703125 152.214844 L 193.703125 194.207031 C 194.101562 194.207031 194.503906 194.210938 194.902344 194.210938 L 194.902344 151.816406 C 194.902344 151.574219 194.757812 151.355469 194.535156 151.261719 L 182.667969 146.316406 C 182.464844 146.230469 182.234375 146.265625 182.066406 146.398438 L 173.453125 153.261719 C 173.3125 153.375 173.230469 153.546875 173.230469 153.730469 L 173.230469 194.316406 C 173.628906 194.304688 174.027344 194.292969 174.425781 194.28125 " fill-opacity="1" fill-rule="nonzero"/><path fill="#4b5842" d="M 183.046875 194.175781 L 183.046875 146.867188 C 183.046875 146.539062 182.78125 146.269531 182.449219 146.269531 C 182.117188 146.269531 181.851562 146.539062 181.851562 146.867188 L 181.851562 194.183594 C 182.25 194.179688 182.648438 194.179688 183.046875 194.175781 " fill-opacity="1" fill-rule="nonzero"/><path fill="#4b5842" d="M 185.179688 151.082031 L 186.910156 151.710938 L 186.910156 153.65625 L 185.179688 153.027344 C 184.855469 152.910156 184.589844 152.550781 184.589844 152.226562 L 184.589844 151.453125 C 184.589844 151.128906 184.855469 150.960938 185.179688 151.082031 " fill-opacity="1" fill-rule="nonzero"/><path fill="#4b5842" d="M 189.675781 154.664062 L 187.421875 153.847656 L 187.421875 151.898438 L 189.675781 152.714844 L 189.675781 154.664062 " fill-opacity="1" fill-rule="nonzero"/><path fill="#4b5842" d="M 190.1875 152.902344 L 191.691406 153.449219 C 192.015625 153.566406 192.28125 153.929688 192.28125 154.25 L 192.28125 155.023438 C 192.28125 155.347656 192.015625 155.515625 191.691406 155.398438 L 190.1875 154.851562 L 190.1875 152.902344 " fill-opacity="1" fill-rule="nonzero"/><path fill="#4b5842" d="M 185.179688 156.636719 L 186.910156 157.265625 L 186.910156 159.214844 L 185.179688 158.585938 C 184.855469 158.464844 184.589844 158.105469 184.589844 157.785156 L 184.589844 157.011719 C 184.589844 156.6875 184.855469 156.519531 185.179688 156.636719 " fill-opacity="1" fill-rule="nonzero"/><path fill="#4b5842" d="M 189.675781 160.222656 L 187.421875 159.402344 L 187.421875 157.453125 L 189.675781 158.273438 L 189.675781 160.222656 " fill-opacity="1" fill-rule="nonzero"/><path fill="#4b5842" d="M 190.1875 158.460938 L 191.691406 159.007812 C 192.015625 159.125 192.28125 159.484375 192.28125 159.808594 L 192.28125 160.582031 C 192.28125 160.90625 192.015625 161.074219 191.691406 160.953125 L 190.1875 160.410156 L 190.1875 158.460938 " fill-opacity="1" fill-rule="nonzero"/><path fill="#4b5842" d="M 190.1875 164.015625 L 191.691406 164.5625 C 192.015625 164.679688 192.28125 165.039062 192.28125 165.367188 L 192.28125 166.136719 C 192.28125 166.460938 192.015625 166.628906 191.691406 166.511719 L 190.1875 165.964844 L 190.1875 164.015625 " fill-opacity="1" fill-rule="nonzero"/><path fill="#4b5842" d="M 189.675781 165.777344 L 187.421875 164.960938 L 187.421875 163.011719 L 189.675781 163.828125 L 189.675781 165.777344 " fill-opacity="1" fill-rule="nonzero"/><path fill="#4b5842" d="M 185.179688 162.191406 L 186.910156 162.824219 L 186.910156 164.773438 L 185.179688 164.140625 C 184.855469 164.023438 184.589844 163.664062 184.589844 163.339844 L 184.589844 162.566406 C 184.589844 162.242188 184.855469 162.074219 185.179688 162.191406 " fill-opacity="1" fill-rule="nonzero"/><path fill="#4b5842" d="M 189.675781 171.335938 L 187.421875 170.515625 L 187.421875 168.566406 L 189.675781 169.386719 L 189.675781 171.335938 " fill-opacity="1" fill-rule="nonzero"/><path fill="#4b5842" d="M 185.179688 167.75 L 186.910156 168.378906 L 186.910156 170.328125 L 185.179688 169.699219 C 184.855469 169.582031 184.589844 169.222656 184.589844 168.898438 L 184.589844 168.125 C 184.589844 167.800781 184.855469 167.632812 185.179688 167.75 " fill-opacity="1" fill-rule="nonzero"/><path fill="#4b5842" d="M 190.1875 169.574219 L 191.691406 170.121094 C 192.015625 170.238281 192.28125 170.597656 192.28125 170.921875 L 192.28125 171.695312 C 192.28125 172.019531 192.015625 172.1875 191.691406 172.070312 L 190.1875 171.519531 L 190.1875 169.574219 " fill-opacity="1" fill-rule="nonzero"/><path fill="#4b5842" d="M 190.1875 175.128906 L 191.691406 175.675781 C 192.015625 175.792969 192.28125 176.15625 192.28125 176.480469 L 192.28125 177.25 C 192.28125 177.574219 192.015625 177.742188 191.691406 177.625 L 190.1875 177.078125 L 190.1875 175.128906 " fill-opacity="1" fill-rule="nonzero"/><path fill="#4b5842" d="M 189.675781 176.890625 L 187.421875 176.074219 L 187.421875 174.125 L 189.675781 174.945312 L 189.675781 176.890625 " fill-opacity="1" fill-rule="nonzero"/><path fill="#4b5842" d="M 185.179688 173.308594 L 186.910156 173.9375 L 186.910156 175.886719 L 185.179688 175.257812 C 184.855469 175.136719 184.589844 174.777344 184.589844 174.453125 L 184.589844 173.679688 C 184.589844 173.355469 184.855469 173.1875 185.179688 173.308594 " fill-opacity="1" fill-rule="nonzero"/><path fill="#4b5842" d="M 178.484375 154.300781 L 177.242188 155.179688 L 177.242188 153.847656 L 178.484375 152.964844 L 178.484375 154.300781 " fill-opacity="1" fill-rule="nonzero"/><path fill="#4b5842" d="M 179 152.601562 L 180.25 151.714844 C 180.472656 151.558594 180.65625 151.609375 180.65625 151.832031 L 180.65625 152.359375 C 180.65625 152.582031 180.472656 152.890625 180.25 153.046875 L 179 153.9375 L 179 152.601562 " fill-opacity="1" fill-rule="nonzero"/><path fill="#4b5842" d="M 175.792969 154.871094 L 176.730469 154.207031 L 176.730469 155.542969 L 175.792969 156.203125 C 175.570312 156.363281 175.390625 156.308594 175.390625 156.085938 L 175.390625 155.558594 C 175.390625 155.335938 175.570312 155.03125 175.792969 154.871094 " fill-opacity="1" fill-rule="nonzero"/><path fill="#4b5842" d="M 178.484375 159.738281 L 177.242188 160.621094 L 177.242188 159.285156 L 178.484375 158.40625 L 178.484375 159.738281 " fill-opacity="1" fill-rule="nonzero"/><path fill="#4b5842" d="M 175.792969 160.3125 L 176.730469 159.648438 L 176.730469 160.980469 L 175.792969 161.644531 C 175.570312 161.804688 175.390625 161.75 175.390625 161.53125 L 175.390625 161 C 175.390625 160.777344 175.570312 160.46875 175.792969 160.3125 " fill-opacity="1" fill-rule="nonzero"/><path fill="#4b5842" d="M 179 158.042969 L 180.25 157.15625 C 180.472656 157 180.65625 157.050781 180.65625 157.273438 L 180.65625 157.800781 C 180.65625 158.023438 180.472656 158.332031 180.25 158.488281 L 179 159.375 L 179 158.042969 " fill-opacity="1" fill-rule="nonzero"/><path fill="#4b5842" d="M 178.484375 165.179688 L 177.242188 166.058594 L 177.242188 164.726562 L 178.484375 163.847656 L 178.484375 165.179688 " fill-opacity="1" fill-rule="nonzero"/><path fill="#4b5842" d="M 175.792969 165.753906 L 176.730469 165.089844 L 176.730469 166.421875 L 175.792969 167.085938 C 175.570312 167.242188 175.390625 167.191406 175.390625 166.96875 L 175.390625 166.4375 C 175.390625 166.21875 175.570312 165.910156 175.792969 165.753906 " fill-opacity="1" fill-rule="nonzero"/><path fill="#4b5842" d="M 179 163.484375 L 180.25 162.597656 C 180.472656 162.4375 180.65625 162.492188 180.65625 162.714844 L 180.65625 163.242188 C 180.65625 163.464844 180.472656 163.769531 180.25 163.929688 L 179 164.816406 L 179 163.484375 " fill-opacity="1" fill-rule="nonzero"/><path fill="#4b5842" d="M 179 168.921875 L 180.25 168.035156 C 180.472656 167.878906 180.65625 167.929688 180.65625 168.152344 L 180.65625 168.683594 C 180.65625 168.90625 180.472656 169.210938 180.25 169.371094 L 179 170.257812 L 179 168.921875 " fill-opacity="1" fill-rule="nonzero"/><path fill="#4b5842" d="M 178.484375 170.621094 L 177.242188 171.5 L 177.242188 170.167969 L 178.484375 169.285156 L 178.484375 170.621094 " fill-opacity="1" fill-rule="nonzero"/><path fill="#4b5842" d="M 175.792969 171.191406 L 176.730469 170.53125 L 176.730469 171.863281 L 175.792969 172.527344 C 175.570312 172.683594 175.390625 172.632812 175.390625 172.410156 L 175.390625 171.882812 C 175.390625 171.65625 175.570312 171.347656 175.792969 171.191406 " fill-opacity="1" fill-rule="nonzero"/><path fill="#4b5842" d="M 179 174.363281 L 180.25 173.476562 C 180.472656 173.320312 180.65625 173.371094 180.65625 173.59375 L 180.65625 174.121094 C 180.65625 174.34375 180.472656 174.652344 180.25 174.8125 L 179 175.695312 L 179 174.363281 " fill-opacity="1" fill-rule="nonzero"/><path fill="#4b5842" d="M 178.484375 176.0625 L 177.242188 176.941406 L 177.242188 175.605469 L 178.484375 174.726562 L 178.484375 176.0625 " fill-opacity="1" fill-rule="nonzero"/><path fill="#4b5842" d="M 175.792969 176.632812 L 176.730469 175.96875 L 176.730469 177.304688 L 175.792969 177.964844 C 175.570312 178.125 175.390625 178.070312 175.390625 177.851562 L 175.390625 177.320312 C 175.390625 177.097656 175.570312 176.789062 175.792969 176.632812 " fill-opacity="1" fill-rule="nonzero"/><path fill="#4b5842" d="M 185.179688 178.738281 L 186.910156 179.367188 L 186.910156 181.316406 L 185.179688 180.6875 C 184.855469 180.566406 184.589844 180.210938 184.589844 179.886719 L 184.589844 179.113281 C 184.589844 178.789062 184.855469 178.621094 185.179688 178.738281 " fill-opacity="1" fill-rule="nonzero"/><path fill="#4b5842" d="M 189.675781 182.324219 L 187.421875 181.503906 L 187.421875 179.554688 L 189.675781 180.375 L 189.675781 182.324219 " fill-opacity="1" fill-rule="nonzero"/><path fill="#4b5842" d="M 190.1875 180.5625 L 191.691406 181.109375 C 192.015625 181.226562 192.28125 181.585938 192.28125 181.910156 L 192.28125 182.683594 C 192.28125 183.007812 192.015625 183.175781 191.691406 183.058594 L 190.1875 182.511719 L 190.1875 180.5625 " fill-opacity="1" fill-rule="nonzero"/><path fill="#4b5842" d="M 190.1875 186.117188 L 191.691406 186.664062 C 192.015625 186.78125 192.28125 187.140625 192.28125 187.46875 L 192.28125 188.238281 C 192.28125 188.5625 192.015625 188.734375 191.691406 188.613281 L 190.1875 188.066406 L 190.1875 186.117188 " fill-opacity="1" fill-rule="nonzero"/><path fill="#4b5842" d="M 189.675781 187.878906 L 187.421875 187.0625 L 187.421875 185.113281 L 189.675781 185.929688 L 189.675781 187.878906 " fill-opacity="1" fill-rule="nonzero"/><path fill="#4b5842" d="M 185.179688 184.292969 L 186.910156 184.925781 L 186.910156 186.875 L 185.179688 186.242188 C 184.855469 186.125 184.589844 185.765625 184.589844 185.441406 L 184.589844 184.671875 C 184.589844 184.34375 184.855469 184.179688 185.179688 184.292969 " fill-opacity="1" fill-rule="nonzero"/><path fill="#4b5842" d="M 189.675781 193.4375 L 187.421875 192.617188 L 187.421875 190.667969 L 189.675781 191.488281 L 189.675781 193.4375 " fill-opacity="1" fill-rule="nonzero"/><path fill="#4b5842" d="M 185.179688 189.851562 L 186.910156 190.480469 L 186.910156 192.429688 L 185.179688 191.800781 C 184.855469 191.683594 184.589844 191.324219 184.589844 191 L 184.589844 190.226562 C 184.589844 189.902344 184.855469 189.734375 185.179688 189.851562 " fill-opacity="1" fill-rule="nonzero"/><path fill="#4b5842" d="M 191.800781 194.199219 C 191.855469 194.199219 191.910156 194.199219 191.964844 194.199219 C 192.152344 194.167969 192.28125 194.023438 192.28125 193.796875 L 192.28125 193.023438 C 192.28125 192.699219 192.015625 192.339844 191.691406 192.222656 L 190.1875 191.675781 L 190.1875 193.621094 L 191.691406 194.171875 C 191.730469 194.183594 191.765625 194.195312 191.800781 194.199219 " fill-opacity="1" fill-rule="nonzero"/><path fill="#4b5842" d="M 178.484375 181.84375 L 177.242188 182.722656 L 177.242188 181.386719 L 178.484375 180.507812 L 178.484375 181.84375 " fill-opacity="1" fill-rule="nonzero"/><path fill="#4b5842" d="M 175.792969 182.414062 L 176.730469 181.75 L 176.730469 183.085938 L 175.792969 183.746094 C 175.570312 183.90625 175.390625 183.851562 175.390625 183.632812 L 175.390625 183.101562 C 175.390625 182.878906 175.570312 182.570312 175.792969 182.414062 " fill-opacity="1" fill-rule="nonzero"/><path fill="#4b5842" d="M 179 180.144531 L 180.25 179.257812 C 180.472656 179.101562 180.65625 179.152344 180.65625 179.375 L 180.65625 179.902344 C 180.65625 180.125 180.472656 180.433594 180.25 180.589844 L 179 181.480469 L 179 180.144531 " fill-opacity="1" fill-rule="nonzero"/><path fill="#4b5842" d="M 178.484375 187.28125 L 177.242188 188.160156 L 177.242188 186.828125 L 178.484375 185.949219 L 178.484375 187.28125 " fill-opacity="1" fill-rule="nonzero"/><path fill="#4b5842" d="M 175.792969 187.855469 L 176.730469 187.191406 L 176.730469 188.527344 L 175.792969 189.1875 C 175.570312 189.34375 175.390625 189.292969 175.390625 189.070312 L 175.390625 188.542969 C 175.390625 188.320312 175.570312 188.011719 175.792969 187.855469 " fill-opacity="1" fill-rule="nonzero"/><path fill="#4b5842" d="M 179 185.585938 L 180.25 184.699219 C 180.472656 184.539062 180.65625 184.59375 180.65625 184.816406 L 180.65625 185.34375 C 180.65625 185.566406 180.472656 185.875 180.25 186.03125 L 179 186.917969 L 179 185.585938 " fill-opacity="1" fill-rule="nonzero"/><path fill="#4b5842" d="M 179 191.027344 L 180.25 190.140625 C 180.472656 189.980469 180.65625 190.035156 180.65625 190.253906 L 180.65625 190.785156 C 180.65625 191.007812 180.472656 191.316406 180.25 191.472656 L 179 192.359375 L 179 191.027344 " fill-opacity="1" fill-rule="nonzero"/><path fill="#4b5842" d="M 178.484375 192.722656 L 177.242188 193.601562 L 177.242188 192.269531 L 178.484375 191.386719 L 178.484375 192.722656 " fill-opacity="1" fill-rule="nonzero"/><path fill="#4b5842" d="M 176.34375 194.238281 L 176.730469 193.96875 L 176.730469 192.632812 L 175.792969 193.292969 C 175.570312 193.453125 175.390625 193.761719 175.390625 193.984375 L 175.390625 194.257812 C 175.710938 194.25 176.027344 194.242188 176.34375 194.238281 " fill-opacity="1" fill-rule="nonzero"/><g clip-path="url(#b53b4ef71c)"><path fill="#4b5842" d="M 177.753906 138.628906 C 177.960938 138.628906 178.164062 138.523438 178.273438 138.332031 L 184.015625 128.398438 L 188.199219 137.195312 C 188.335938 137.492188 188.695312 137.621094 188.992188 137.480469 C 189.292969 137.335938 189.421875 136.980469 189.28125 136.679688 L 184.605469 126.855469 C 184.511719 126.65625 184.3125 126.523438 184.089844 126.515625 C 183.867188 126.507812 183.660156 126.621094 183.546875 126.816406 L 177.234375 137.730469 C 177.070312 138.015625 177.167969 138.382812 177.457031 138.546875 C 177.550781 138.601562 177.652344 138.628906 177.753906 138.628906 " fill-opacity="1" fill-rule="nonzero"/></g><g clip-path="url(#ff78aed4fd)"><path fill="#4b5842" d="M 187.332031 190.644531 C 157.382812 190.644531 131.90625 197.363281 122.457031 206.746094 C 138.15625 200.347656 161.394531 196.296875 187.332031 196.296875 C 213.265625 196.296875 236.507812 200.347656 252.207031 206.746094 C 242.757812 197.363281 217.28125 190.644531 187.332031 190.644531 " fill-opacity="1" fill-rule="nonzero"/></g><g fill="#4b5842" fill-opacity="1"><g transform="translate(122.821322, 232.962011)"><g><path d="M 10.597656 0 L 10.597656 -17.777344 L 16.128906 -17.777344 L 16.128906 -22.191406 L 0.621094 -22.191406 L 0.621094 -17.777344 L 6.152344 -17.777344 L 6.152344 0 Z M 10.597656 0 "/></g></g></g><g fill="#4b5842" fill-opacity="1"><g transform="translate(144.141291, 232.962011)"><g><path d="M 13.984375 0 L 13.984375 -4.445312 L 6.929688 -4.445312 L 6.929688 -8.890625 L 12.773438 -8.890625 L 12.773438 -13.332031 L 6.929688 -13.332031 L 6.929688 -17.777344 L 13.613281 -17.777344 L 13.613281 -22.222656 L 2.488281 -22.222656 L 2.488281 0 Z M 13.984375 0 "/></g></g></g><g fill="#4b5842" fill-opacity="1"><g transform="translate(164.124912, 232.962011)"><g><path d="M 12.679688 -12.804688 L 3.917969 -22.5625 L 2.488281 -22.5625 L 2.488281 0 L 6.992188 0 L 6.992188 -12.402344 L 12.679688 -6.433594 L 18.367188 -12.402344 L 18.335938 0 L 22.84375 0 L 22.84375 -22.5625 L 21.445312 -22.5625 Z M 12.679688 -12.804688 "/></g></g></g><g fill="#4b5842" fill-opacity="1"><g transform="translate(193.804882, 232.962011)"><g><path d="M 6.929688 0 L 6.929688 -8.484375 L 11.21875 -8.484375 C 19.828125 -8.484375 19.859375 -22.191406 11.21875 -22.191406 L 2.488281 -22.191406 L 2.488281 0 Z M 6.929688 -12.804688 L 6.929688 -17.777344 L 10.847656 -17.777344 C 13.832031 -17.777344 13.832031 -12.804688 10.847656 -12.804688 Z M 6.929688 -12.804688 "/></g></g></g><g fill="#4b5842" fill-opacity="1"><g transform="translate(216.865223, 232.962011)"><g><path d="M 2.488281 -22.222656 L 2.488281 0 L 13.984375 0 L 13.984375 -4.445312 L 6.929688 -4.445312 L 6.929688 -22.222656 Z M 2.488281 -22.222656 "/></g></g></g><g fill="#4b5842" fill-opacity="1"><g transform="translate(236.506991, 232.962011)"><g><path d="M 13.984375 0 L 13.984375 -4.445312 L 6.929688 -4.445312 L 6.929688 -8.890625 L 12.773438 -8.890625 L 12.773438 -13.332031 L 6.929688 -13.332031 L 6.929688 -17.777344 L 13.613281 -17.777344 L 13.613281 -22.222656 L 2.488281 -22.222656 L 2.488281 0 Z M 13.984375 0 "/></g></g></g><g fill="#4b5842" fill-opacity="1"><g transform="translate(142.239289, 250.21201)"><g><path d="M 0.707031 -0.695312 C 2.171875 0.0585938 3.511719 0.136719 4.117188 0.0898438 C 6.136719 -0.015625 7.371094 -1.386719 7.371094 -3.179688 C 7.371094 -4.898438 5.925781 -5.863281 4.25 -6.480469 C 3.632812 -6.691406 3.105469 -6.964844 3.046875 -7.566406 C 3 -8.171875 3.347656 -8.726562 4.117188 -8.773438 C 4.445312 -8.789062 5.125 -8.804688 6.316406 -8.320312 L 6.585938 -10.402344 C 5.199219 -10.882812 4.460938 -10.882812 3.90625 -10.855469 C 2.109375 -10.761719 0.859375 -9.375 0.859375 -7.566406 C 0.859375 -5.757812 2.367188 -4.898438 4.054688 -4.28125 C 4.65625 -4.070312 5.125 -3.800781 5.171875 -3.179688 C 5.230469 -2.59375 4.6875 -2.140625 4.054688 -2.09375 C 3.558594 -2.050781 2.214844 -2.082031 0.980469 -2.953125 Z M 0.707031 -0.695312 "/></g></g></g><g fill="#4b5842" fill-opacity="1"><g transform="translate(152.307802, 250.21201)"><g><path d="M 8.941406 -3.753906 L 8.941406 -10.777344 L 6.796875 -10.777344 L 6.796875 -3.769531 C 6.796875 -1.507812 3.300781 -1.507812 3.300781 -3.769531 L 3.300781 -10.777344 L 1.144531 -10.777344 L 1.144531 -3.753906 C 1.144531 1.371094 8.941406 1.371094 8.941406 -3.753906 Z M 8.941406 -3.753906 "/></g></g></g><g fill="#4b5842" fill-opacity="1"><g transform="translate(164.516293, 250.21201)"><g><path d="M 3.363281 0 L 3.363281 -10.777344 L 1.207031 -10.777344 L 1.207031 0 Z M 3.363281 0 "/></g></g></g><g fill="#4b5842" fill-opacity="1"><g transform="translate(171.193992, 250.21201)"><g><path d="M 5.140625 0 L 5.140625 -8.621094 L 7.824219 -8.621094 L 7.824219 -10.761719 L 0.300781 -10.761719 L 0.300781 -8.621094 L 2.984375 -8.621094 L 2.984375 0 Z M 5.140625 0 "/></g></g></g><g fill="#4b5842" fill-opacity="1"><g transform="translate(181.533765, 250.21201)"><g><path d="M 0.707031 -0.695312 C 2.171875 0.0585938 3.511719 0.136719 4.117188 0.0898438 C 6.136719 -0.015625 7.371094 -1.386719 7.371094 -3.179688 C 7.371094 -4.898438 5.925781 -5.863281 4.25 -6.480469 C 3.632812 -6.691406 3.105469 -6.964844 3.046875 -7.566406 C 3 -8.171875 3.347656 -8.726562 4.117188 -8.773438 C 4.445312 -8.789062 5.125 -8.804688 6.316406 -8.320312 L 6.585938 -10.402344 C 5.199219 -10.882812 4.460938 -10.882812 3.90625 -10.855469 C 2.109375 -10.761719 0.859375 -9.375 0.859375 -7.566406 C 0.859375 -5.757812 2.367188 -4.898438 4.054688 -4.28125 C 4.65625 -4.070312 5.125 -3.800781 5.171875 -3.179688 C 5.230469 -2.59375 4.6875 -2.140625 4.054688 -2.09375 C 3.558594 -2.050781 2.214844 -2.082031 0.980469 -2.953125 Z M 0.707031 -0.695312 "/></g></g></g><g fill="#4b5842" fill-opacity="1"><g transform="translate(191.602277, 250.21201)"><g><path d="M 4.671875 -10.921875 C 5.253906 -10.921875 5.769531 -10.828125 6.21875 -10.640625 C 6.675781 -10.460938 7.035156 -10.195312 7.296875 -9.84375 C 7.554688 -9.488281 7.6875 -9.066406 7.6875 -8.578125 C 7.6875 -7.878906 7.476562 -7.296875 7.0625 -6.828125 C 6.65625 -6.359375 6.144531 -5.945312 5.53125 -5.59375 L 7.625 -3.5625 C 7.832031 -3.90625 8.007812 -4.265625 8.15625 -4.640625 C 8.3125 -5.015625 8.4375 -5.394531 8.53125 -5.78125 L 10.875 -5.78125 C 10.71875 -5.21875 10.492188 -4.613281 10.203125 -3.96875 C 9.910156 -3.320312 9.539062 -2.71875 9.09375 -2.15625 L 11.3125 0 L 8.53125 0 L 7.6875 -0.828125 C 7.25 -0.523438 6.765625 -0.285156 6.234375 -0.109375 C 5.703125 0.0664062 5.128906 0.15625 4.515625 0.15625 C 3.285156 0.15625 2.328125 -0.125 1.640625 -0.6875 C 0.953125 -1.25 0.609375 -1.988281 0.609375 -2.90625 C 0.609375 -3.675781 0.78125 -4.285156 1.125 -4.734375 C 1.476562 -5.191406 1.960938 -5.597656 2.578125 -5.953125 C 2.179688 -6.410156 1.90625 -6.828125 1.75 -7.203125 C 1.59375 -7.585938 1.515625 -7.992188 1.515625 -8.421875 C 1.515625 -8.941406 1.648438 -9.382812 1.921875 -9.75 C 2.191406 -10.125 2.5625 -10.410156 3.03125 -10.609375 C 3.5 -10.816406 4.046875 -10.921875 4.671875 -10.921875 Z M 4.65625 -9.1875 C 4.40625 -9.1875 4.164062 -9.125 3.9375 -9 C 3.71875 -8.875 3.609375 -8.632812 3.609375 -8.28125 C 3.609375 -8.03125 3.671875 -7.785156 3.796875 -7.546875 C 3.921875 -7.316406 4.085938 -7.082031 4.296875 -6.84375 C 4.722656 -7.070312 5.046875 -7.300781 5.265625 -7.53125 C 5.492188 -7.769531 5.609375 -8.039062 5.609375 -8.34375 C 5.609375 -8.644531 5.503906 -8.859375 5.296875 -8.984375 C 5.097656 -9.117188 4.882812 -9.1875 4.65625 -9.1875 Z M 3.890625 -4.609375 C 3.609375 -4.398438 3.382812 -4.175781 3.21875 -3.9375 C 3.050781 -3.707031 2.96875 -3.4375 2.96875 -3.125 C 2.96875 -2.6875 3.128906 -2.34375 3.453125 -2.09375 C 3.773438 -1.851562 4.175781 -1.734375 4.65625 -1.734375 C 4.976562 -1.734375 5.28125 -1.769531 5.5625 -1.84375 C 5.84375 -1.925781 6.097656 -2.039062 6.328125 -2.1875 Z M 3.890625 -4.609375 "/></g></g></g><g fill="#4b5842" fill-opacity="1"><g transform="translate(205.001317, 250.21201)"><g><path d="M 3.363281 0 L 3.363281 -10.777344 L 1.207031 -10.777344 L 1.207031 0 Z M 3.363281 0 "/></g></g></g><g fill="#4b5842" fill-opacity="1"><g transform="translate(211.679012, 250.21201)"><g><path d="M 3.363281 -5.863281 L 8.820312 0.226562 L 9.390625 0.226562 L 9.390625 -10.761719 L 7.222656 -10.761719 L 7.222656 -4.671875 L 1.777344 -11.003906 L 1.207031 -11.003906 L 1.207031 0 L 3.363281 0 Z M 3.363281 -5.863281 "/></g></g></g><g fill="#4b5842" fill-opacity="1"><g transform="translate(224.384815, 250.21201)"><g><path d="M 3.363281 -5.863281 L 8.820312 0.226562 L 9.390625 0.226562 L 9.390625 -10.761719 L 7.222656 -10.761719 L 7.222656 -4.671875 L 1.777344 -11.003906 L 1.207031 -11.003906 L 1.207031 0 L 3.363281 0 Z M 3.363281 -5.863281 "/></g></g></g></svg>